<?xml version="1.0" standalone="no"?>
<!DOCTYPE svg PUBLIC "-//W3C//DTD SVG 20010904//EN"
 "http://www.w3.org/TR/2001/REC-SVG-20010904/DTD/svg10.dtd">
<svg version="1.0" xmlns="http://www.w3.org/2000/svg"
 width="1184.000000pt" height="1340.000000pt" viewBox="0 0 1184.000000 1340.000000"
 preserveAspectRatio="xMidYMid meet">

<g transform="translate(0.000000,1340.000000) scale(0.100000,-0.100000)"
fill="#000000" stroke="none">
<path d="M90 13378 c-33 -17 -51 -35 -67 -68 l-23 -44 0 -6566 0 -6566 22 -44
c17 -33 35 -51 68 -67 l44 -23 903 0 903 0 2 4993 3 4992 27 101 c60 225 159
398 322 560 193 194 416 306 683 344 56 8 903 10 3003 8 l2925 -3 101 -27
c225 -60 398 -159 560 -322 188 -187 293 -390 339 -650 13 -79 15 -617 15
-5042 l0 -4954 893 0 893 0 44 23 c33 16 51 34 67 67 l23 44 0 6566 0 6566
-22 44 c-17 33 -35 51 -68 68 l-44 22 -5786 0 -5786 0 -44 -22z"/>
<path d="M2728 10187 c-69 -26 -126 -67 -160 -114 -51 -71 -63 -108 -63 -198
0 -72 3 -86 35 -144 23 -44 50 -75 85 -101 72 -53 109 -65 200 -65 72 0 86 3
143 34 66 36 104 76 143 151 19 37 23 61 24 130 0 78 -3 90 -34 149 -36 65
-95 119 -161 148 -50 21 -167 27 -212 10z m147 -172 c50 -49 15 -135 -55 -135
-41 0 -80 39 -80 80 0 41 39 80 80 80 19 0 40 -9 55 -25z m28 -189 c52 -19 77
-44 77 -78 l0 -28 -160 0 -160 0 0 28 c0 51 72 91 160 91 25 0 62 -6 83 -13z"/>
<path d="M8948 10187 c-69 -26 -126 -67 -160 -114 -51 -71 -63 -108 -63 -198
0 -72 3 -86 35 -144 23 -44 50 -75 85 -101 72 -53 109 -65 200 -65 72 0 86 3
143 34 66 36 104 76 143 151 19 37 23 61 24 130 0 78 -3 90 -34 149 -36 65
-95 119 -161 148 -50 21 -167 27 -212 10z m52 -142 c17 -9 30 -20 30 -25 0 -5
16 2 36 15 43 29 61 31 86 8 23 -21 23 -38 -2 -63 l-20 -20 45 0 c43 0 45 -1
45 -30 l0 -30 -80 0 -80 0 0 30 c0 23 -4 30 -20 30 -16 0 -20 -7 -20 -30 l0
-30 -80 0 -80 0 0 30 c0 28 2 30 41 30 39 0 40 0 25 22 -20 28 -20 43 0 62 19
20 37 20 74 1z m20 -245 l0 -80 -70 0 -70 0 0 80 0 80 70 0 70 0 0 -80z m180
0 l0 -80 -70 0 -70 0 0 80 0 80 70 0 70 0 0 -80z"/>
<path d="M8947 10023 c-11 -10 24 -43 45 -43 25 0 23 16 -4 34 -25 18 -32 19
-41 9z"/>
<path d="M9083 10005 c-25 -22 -26 -24 -8 -25 26 0 67 28 60 41 -10 14 -22 11
-52 -16z"/>
<path d="M4326 8884 c-10 -25 -7 -59 6 -72 7 -7 27 -12 45 -12 42 0 63 35 45
75 -10 20 -19 25 -51 25 -26 0 -41 -5 -45 -16z"/>
<path d="M2692 8867 c-46 -14 -121 -84 -143 -132 -21 -45 -24 -121 -8 -178 13
-49 73 -115 124 -138 55 -26 166 -25 223 1 l43 19 -16 37 c-8 20 -15 38 -15
40 0 3 -14 -3 -31 -11 -119 -62 -239 5 -239 134 0 100 55 154 156 153 28 0 65
-7 82 -16 l30 -15 10 42 c6 23 8 45 4 48 -31 28 -156 37 -220 16z"/>
<path d="M3710 8790 c0 -49 -1 -50 -30 -50 -28 0 -30 -3 -30 -35 0 -32 2 -35
30 -35 l30 0 0 -82 c0 -155 23 -188 127 -188 l63 0 0 40 c0 38 -1 39 -29 34
-21 -5 -34 -1 -50 15 -19 19 -21 31 -19 99 l3 77 48 3 c46 3 47 4 47 38 l0 34
-50 0 -50 0 0 50 0 50 -45 0 -45 0 0 -50z"/>
<path d="M9030 8769 c-51 -23 -95 -61 -116 -101 -13 -25 -13 -32 0 -57 36 -69
128 -121 212 -121 73 1 166 58 200 123 13 24 13 31 0 56 -9 16 -34 44 -56 63
-69 60 -159 74 -240 37z m139 -43 c67 -35 65 -143 -4 -174 -91 -41 -179 51
-131 137 26 47 84 63 135 37z"/>
<path d="M9080 8680 c-11 -11 -20 -29 -20 -40 0 -11 9 -29 20 -40 11 -11 29
-20 40 -20 11 0 29 9 40 20 11 11 20 29 20 40 0 11 -9 29 -20 40 -11 11 -29
20 -40 20 -11 0 -29 -9 -40 -20z"/>
<path d="M3055 8730 c-28 -11 -72 -60 -84 -93 -29 -76 1 -180 62 -217 48 -30
126 -27 161 5 15 14 29 25 32 25 2 0 4 -11 4 -25 0 -23 4 -25 45 -25 l45 0 0
170 0 170 -45 0 c-38 0 -45 -3 -45 -20 0 -20 0 -20 -32 0 -34 21 -106 26 -143
10z m160 -80 c17 -14 20 -85 5 -124 -24 -65 -114 -73 -151 -13 -27 43 -19 103
18 136 22 19 34 22 70 18 24 -2 50 -10 58 -17z"/>
<path d="M3400 8570 l0 -170 45 0 45 0 0 109 c0 103 2 111 23 126 12 8 39 18
60 22 35 5 37 7 37 44 0 37 -2 39 -31 39 -20 0 -40 -10 -59 -29 -32 -31 -40
-30 -40 6 0 20 -5 23 -40 23 l-40 0 0 -170z"/>
<path d="M4020 8718 c-55 -38 -74 -71 -78 -141 -3 -53 0 -67 20 -97 39 -58 82
-80 154 -80 61 0 144 23 144 41 0 13 -23 59 -29 59 -3 -1 -17 -7 -31 -15 -14
-8 -44 -14 -68 -15 -35 0 -49 6 -73 29 -16 16 -29 34 -29 40 0 7 41 11 120 11
l120 0 0 41 c0 55 -25 104 -65 129 -47 29 -141 28 -185 -2z m118 -44 c12 -4
29 -19 38 -35 l15 -29 -81 0 -80 0 11 24 c17 36 53 51 97 40z"/>
<path d="M4330 8570 l0 -170 45 0 45 0 0 170 0 170 -45 0 -45 0 0 -170z"/>
<path d="M4500 8570 l0 -170 45 0 45 0 0 109 c0 103 2 111 23 126 12 8 39 18
60 22 35 5 37 7 37 44 0 37 -2 39 -31 39 -23 0 -41 -10 -65 -36 l-34 -35 0 35
c0 35 -1 36 -40 36 l-40 0 0 -170z"/>
<path d="M4845 8730 c-11 -4 -32 -21 -47 -36 -74 -79 -63 -214 22 -271 48 -33
127 -32 164 2 15 14 29 25 32 25 2 0 4 -11 4 -25 0 -23 4 -25 45 -25 l45 0 0
170 0 170 -45 0 c-38 0 -45 -3 -45 -20 0 -20 0 -20 -32 0 -34 21 -106 26 -143
10z m161 -81 c13 -10 15 -26 12 -73 -4 -50 -9 -63 -33 -84 -23 -19 -36 -23
-64 -18 -54 8 -76 37 -76 97 0 44 4 54 29 76 25 21 37 24 73 20 24 -2 50 -11
59 -18z"/>
<path d="M5205 8707 c-27 -27 -35 -43 -35 -71 0 -51 32 -81 106 -96 71 -16 93
-32 74 -54 -15 -19 -94 -22 -136 -6 -32 12 -44 1 -44 -42 0 -23 5 -28 35 -34
19 -3 67 -4 106 -2 65 3 74 6 100 36 22 24 29 42 29 73 0 55 -29 82 -107 98
-71 14 -92 31 -68 55 20 20 48 20 108 2 l45 -14 7 35 c3 19 3 38 0 42 -4 3
-47 8 -96 9 l-89 4 -35 -35z"/>
<path d="M3120 7911 c0 -45 -2 -49 -29 -54 -67 -14 -117 -89 -100 -151 14 -48
48 -75 123 -97 39 -11 80 -29 91 -40 18 -18 19 -21 5 -47 -14 -24 -23 -27 -72
-30 -35 -2 -71 3 -95 13 -49 21 -45 22 -60 -19 -11 -35 -11 -37 15 -50 15 -8
44 -17 65 -21 36 -7 37 -8 37 -51 l0 -44 40 0 40 0 0 45 c0 43 1 45 45 64 55
24 85 70 85 129 0 61 -35 94 -131 122 -41 12 -80 27 -86 32 -20 16 -15 56 6
68 28 15 96 12 138 -5 19 -8 37 -15 38 -15 2 0 8 14 14 31 14 41 2 57 -50 65
l-39 7 0 48 0 49 -40 0 -40 0 0 -49z"/>
<path d="M9073 7949 c-9 -9 -3 -23 29 -60 l41 -49 -41 -49 c-33 -39 -39 -51
-28 -60 10 -9 25 1 65 43 28 30 51 60 51 66 0 7 -24 36 -52 66 -41 43 -56 52
-65 43z"/>
<path d="M2550 7641 l0 -241 45 0 45 0 0 95 c0 94 0 95 24 95 20 0 38 -19 91
-95 l66 -95 54 0 c30 0 55 2 55 5 0 3 -31 47 -69 98 l-70 91 28 12 c47 20 81
70 81 120 0 107 -55 143 -232 151 l-118 6 0 -242z m220 136 c17 -8 26 -22 28
-43 5 -48 -18 -64 -94 -64 l-64 0 0 60 0 60 53 0 c28 0 63 -6 77 -13z"/>
<path d="M3617 7714 c-91 -128 -117 -172 -115 -192 l3 -27 108 -3 107 -3 0
-44 0 -45 45 0 45 0 0 45 c0 43 1 45 30 45 28 0 30 2 30 40 0 38 -2 40 -30 40
l-30 0 0 155 0 155 -38 0 c-37 0 -39 -1 -155 -166z m100 -141 c-3 -2 -28 -3
-56 -1 l-52 3 53 78 53 77 3 -76 c2 -42 1 -78 -1 -81z"/>
<path d="M3980 7861 c-19 -11 -44 -29 -54 -40 -20 -22 -20 -22 7 -48 l27 -27
31 23 c39 29 96 32 115 6 35 -47 11 -95 -112 -231 -59 -65 -74 -88 -74 -113
l0 -31 160 0 160 0 0 45 0 45 -90 0 c-49 0 -90 3 -90 6 0 3 23 32 52 63 80 87
108 137 108 192 0 52 -23 90 -70 114 -40 21 -127 18 -170 -4z"/>
<path d="M4620 7873 c-77 -31 -113 -103 -114 -228 -1 -108 19 -170 69 -214 46
-40 101 -48 158 -23 75 33 111 107 111 232 1 91 -21 153 -69 200 -29 28 -43
34 -87 36 -29 2 -60 1 -68 -3z m87 -88 c55 -38 54 -261 -1 -297 -6 -4 -23 -8
-38 -8 -35 0 -58 42 -65 121 -7 76 4 142 28 173 23 30 45 33 76 11z"/>
<path d="M4994 7861 c-71 -43 -98 -116 -92 -245 4 -106 29 -163 87 -198 46
-29 121 -29 159 -2 67 51 96 130 90 245 -8 138 -70 219 -167 219 -28 0 -58 -8
-77 -19z m114 -82 c25 -25 32 -62 32 -153 0 -92 -22 -140 -66 -144 -51 -5 -68
25 -73 124 -4 103 4 149 30 175 25 25 53 24 77 -2z"/>
<path d="M5381 7858 c-109 -74 -122 -319 -23 -419 51 -51 105 -59 170 -27 38
19 52 33 75 79 23 47 28 69 29 135 0 105 -15 157 -61 207 -35 37 -43 41 -97
45 -50 3 -65 0 -93 -20z m118 -75 c46 -39 50 -235 5 -284 -25 -28 -70 -24 -90
6 -19 29 -30 133 -20 198 8 52 39 97 66 97 10 0 27 -8 39 -17z"/>
<path d="M5980 7861 c-24 -12 -44 -36 -65 -76 -27 -53 -30 -68 -29 -149 0 -70
5 -102 21 -137 54 -122 198 -141 273 -37 82 113 50 353 -54 402 -45 21 -103
20 -146 -3z m124 -94 c18 -24 21 -43 21 -120 0 -134 -28 -183 -93 -163 -38 13
-60 108 -48 209 13 101 72 138 120 74z"/>
<path d="M6374 7861 c-65 -40 -94 -109 -94 -227 0 -127 47 -212 131 -234 87
-24 174 37 199 140 19 78 9 196 -21 250 -46 85 -142 116 -215 71z m114 -82
c25 -25 32 -62 32 -153 0 -92 -22 -140 -66 -144 -51 -5 -68 25 -73 124 -4 103
4 149 30 175 25 25 53 24 77 -2z"/>
<path d="M4342 7494 c-28 -19 -29 -57 -2 -84 40 -40 90 -18 90 40 0 56 -41 77
-88 44z"/>
<path d="M5710 7456 c0 -39 -17 -95 -37 -117 -12 -14 -10 -19 14 -34 l27 -18
36 41 c35 39 60 97 60 141 0 19 -6 21 -50 21 l-50 0 0 -34z"/>
<path d="M3050 7150 c0 -12 -12 -26 -32 -36 -40 -20 -48 -31 -48 -66 0 -30 22
-48 82 -68 43 -13 61 -36 47 -61 -13 -25 -54 -31 -93 -15 -31 13 -35 13 -41
-2 -7 -18 11 -32 43 -32 18 0 22 -6 22 -30 0 -20 5 -30 15 -30 9 0 15 9 15 25
0 15 7 28 18 32 32 11 62 46 62 73 0 34 -25 57 -80 73 -52 15 -70 38 -50 62
12 14 25 16 67 12 60 -6 73 11 23 30 -20 8 -30 18 -30 32 0 12 -4 21 -10 21
-5 0 -10 -9 -10 -20z"/>
<path d="M2760 6995 c0 -113 2 -135 15 -135 12 0 15 13 15 60 0 34 4 60 10 60
6 0 25 -21 43 -46 17 -26 37 -53 43 -61 6 -8 18 -14 27 -12 15 3 12 12 -18 57
l-36 53 31 25 c70 59 19 134 -91 134 l-39 0 0 -135z m118 57 c3 -27 -1 -34
-23 -42 -54 -20 -65 -14 -65 36 l0 45 43 -3 c39 -3 42 -5 45 -36z"/>
<path d="M3298 7114 c-27 -14 -35 -33 -22 -47 4 -3 19 4 35 15 24 18 33 20 54
10 43 -20 33 -58 -35 -140 -33 -39 -60 -76 -60 -81 0 -7 32 -11 85 -11 69 0
85 3 85 15 0 12 -13 15 -61 15 l-61 0 34 41 c87 107 95 133 53 174 -28 28 -66
32 -107 9z"/>
<path d="M3631 7102 c-71 -70 -34 -242 51 -242 42 0 68 17 84 55 54 130 -50
273 -135 187z m89 -22 c16 -16 20 -33 20 -83 0 -71 -18 -107 -54 -107 -31 0
-47 20 -53 69 -14 105 35 173 87 121z"/>
<path d="M3857 7110 c-51 -40 -55 -174 -7 -226 42 -44 111 -28 136 31 52 125
-40 265 -129 195z m83 -30 c16 -16 20 -33 20 -83 0 -71 -18 -107 -54 -107 -31
0 -44 17 -52 68 -17 104 33 175 86 122z"/>
<path d="M4087 7119 c-30 -18 -47 -65 -47 -133 0 -55 4 -69 26 -95 43 -52 113
-39 140 24 49 117 -31 255 -119 204z m73 -39 c16 -16 20 -33 20 -83 0 -71 -18
-107 -54 -107 -31 0 -44 17 -52 68 -17 104 33 175 86 122z"/>
<path d="M4414 7115 c-33 -23 -47 -68 -42 -140 3 -50 9 -70 28 -90 25 -27 67
-33 102 -14 40 22 62 130 39 192 -23 59 -83 84 -127 52z m82 -40 c11 -16 17
-46 17 -80 0 -66 -22 -105 -59 -105 -19 0 -28 8 -41 37 -41 100 31 228 83 148z"/>
<path d="M4634 7115 c-33 -23 -47 -68 -42 -140 3 -50 9 -70 28 -90 25 -27 67
-33 102 -14 40 22 62 130 39 192 -23 59 -83 84 -127 52z m80 -37 c30 -49 27
-159 -6 -179 -52 -33 -95 25 -84 115 9 78 59 113 90 64z"/>
<path d="M2598 7008 c-3 -29 -7 -33 -35 -36 -47 -5 -44 -32 2 -32 33 0 35 -2
35 -35 0 -19 5 -35 10 -35 6 0 10 16 10 35 0 33 2 35 35 35 46 0 49 27 3 32
-29 3 -33 7 -36 36 -2 17 -7 32 -12 32 -5 0 -10 -15 -12 -32z"/>
<path d="M3507 6903 c-15 -14 -7 -43 12 -43 26 0 36 17 21 35 -14 16 -23 19
-33 8z"/>
<path d="M4268 6878 c-3 -18 -8 -41 -13 -50 -13 -32 23 -21 40 12 21 41 19 70
-4 70 -14 0 -20 -9 -23 -32z"/>
<path d="M3787 5734 c-4 -4 -7 -777 -7 -1719 0 -1317 3 -1714 12 -1723 18 -18
192 -16 207 2 8 10 10 469 9 1727 l-3 1714 -106 3 c-58 1 -108 -1 -112 -4z"/>
<path d="M4940 5721 c-7 -13 -10 -565 -10 -1715 0 -1527 2 -1696 16 -1710 19
-20 193 -23 212 -4 17 17 17 3419 0 3436 -8 8 -47 12 -110 12 -86 0 -98 -2
-108 -19z"/>
<path d="M2632 5598 c-17 -17 -17 -3289 0 -3306 19 -19 193 -16 212 4 14 14
16 177 16 1645 0 1105 -3 1637 -10 1650 -10 17 -22 19 -108 19 -63 0 -102 -4
-110 -12z"/>
<path d="M3212 5598 c-17 -17 -18 -3288 0 -3306 14 -14 185 -17 206 -4 10 7
12 346 10 1663 l-3 1654 -100 3 c-70 2 -104 -1 -113 -10z"/>
<path d="M4367 5603 c-4 -3 -7 -750 -7 -1659 0 -1497 1 -1652 16 -1658 29 -11
189 -7 202 6 9 9 12 391 12 1659 0 1492 -1 1647 -16 1653 -21 8 -199 8 -207
-1z"/>
<path d="M5522 3938 c-16 -16 -17 -1609 -2 -1639 10 -17 22 -19 108 -19 63 0
102 4 110 12 17 17 17 1629 0 1646 -16 16 -200 16 -216 0z"/>
<path d="M9257 1864 c-4 -4 -7 -67 -7 -141 l0 -133 30 0 31 0 -3 138 c-3 129
-4 137 -23 140 -12 2 -24 0 -28 -4z"/>
<path d="M3223 1802 c-56 -8 -58 -77 -3 -103 48 -23 46 -45 -3 -42 -32 2 -38
0 -35 -15 2 -12 15 -18 45 -20 35 -3 44 1 58 22 24 36 16 58 -27 79 -50 25
-52 52 -3 44 29 -5 35 -3 35 12 0 20 -28 29 -67 23z"/>
<path d="M2640 1710 c0 -83 1 -90 20 -90 18 0 20 7 20 63 l0 62 20 -32 c11
-18 23 -33 27 -33 5 0 18 17 30 38 l22 37 1 -67 c0 -54 3 -68 15 -68 12 0 15
17 15 90 0 87 -1 90 -23 90 -15 0 -28 -11 -41 -35 l-20 -36 -20 36 c-14 24
-27 35 -43 35 -22 0 -23 -3 -23 -90z"/>
<path d="M2850 1710 l0 -90 60 0 c47 0 60 3 60 15 0 11 -11 15 -40 15 -36 0
-40 3 -40 25 0 22 4 25 35 25 24 0 35 5 35 15 0 10 -11 15 -35 15 -28 0 -35 4
-35 20 0 17 7 20 40 20 29 0 40 4 40 15 0 12 -13 15 -60 15 l-60 0 0 -90z"/>
<path d="M3000 1710 c0 -72 3 -90 15 -90 10 0 15 15 17 58 l3 57 39 -57 c22
-33 46 -58 56 -58 15 0 17 12 17 90 -1 80 -3 90 -19 90 -15 0 -18 -9 -18 -57
l0 -58 -38 57 c-21 34 -44 58 -54 58 -16 0 -18 -11 -18 -90z"/>
<path d="M3365 1788 c-3 -7 -16 -48 -29 -90 -22 -73 -23 -78 -6 -78 10 0 20 7
24 15 3 9 18 15 35 15 16 0 31 -6 35 -15 3 -8 14 -15 25 -15 19 0 18 4 -11 90
-24 72 -34 90 -49 90 -11 0 -22 -6 -24 -12z m28 -96 c-20 -5 -22 -1 -15 33 l5
30 13 -30 c10 -25 10 -31 -3 -33z"/>
<path d="M3490 1710 l0 -90 55 0 c42 0 55 3 55 15 0 10 -11 15 -35 15 l-35 0
0 75 c0 68 -2 75 -20 75 -19 0 -20 -7 -20 -90z"/>
<path d="M4061 1726 c-11 -41 -24 -82 -27 -90 -4 -10 -1 -16 9 -16 9 0 19 9
22 20 5 14 15 20 37 20 21 0 31 -6 35 -20 3 -11 13 -20 23 -20 17 0 16 8 -12
90 -39 117 -56 120 -87 16z m53 2 c10 -38 7 -48 -15 -48 -17 0 -20 4 -15 23 3
12 6 28 6 35 0 21 17 13 24 -10z"/>
<path d="M4210 1710 c0 -72 3 -90 15 -90 10 0 15 16 17 63 l3 62 38 -62 c55
-89 67 -84 67 27 0 73 -3 90 -15 90 -12 0 -15 -14 -15 -62 l0 -63 -41 63 c-58
87 -69 83 -69 -28z"/>
<path d="M4390 1730 c0 -78 19 -110 65 -110 46 0 65 32 65 110 0 56 -3 70 -15
70 -12 0 -15 -13 -15 -59 0 -72 -6 -91 -31 -91 -26 0 -39 30 -39 94 0 43 -3
56 -15 56 -12 0 -15 -14 -15 -70z"/>
<path d="M4576 1722 c-14 -42 -26 -83 -26 -90 0 -20 27 -14 33 8 4 14 14 20
35 20 22 0 32 -6 37 -20 6 -18 35 -29 35 -13 0 4 -12 44 -27 90 -36 110 -52
111 -87 5z m59 -14 c6 -24 4 -28 -14 -28 -22 0 -27 22 -15 55 8 20 20 9 29
-27z"/>
<path d="M4730 1710 l0 -90 45 0 c33 0 45 4 45 15 0 10 -10 15 -30 15 l-30 0
0 75 c0 60 -3 75 -15 75 -12 0 -15 -17 -15 -90z"/>
<path d="M9147 1784 c-4 -4 -7 -49 -7 -101 l0 -93 35 0 36 0 -3 98 c-3 96 -3
97 -28 100 -14 2 -29 0 -33 -4z"/>
<path d="M9037 1704 c-4 -4 -7 -31 -7 -61 l0 -53 35 0 36 0 -3 58 c-3 53 -5
57 -28 60 -14 2 -29 0 -33 -4z"/>
<path d="M2735 1066 c-61 -19 -96 -40 -139 -83 -123 -121 -123 -324 0 -447 22
-21 64 -51 94 -65 l55 -26 1065 0 1065 0 55 26 c70 33 126 89 159 159 54 115
27 262 -65 354 -22 21 -64 51 -94 65 l-55 26 -1050 2 c-827 1 -1058 -1 -1090
-11z m219 -226 c36 -13 24 -41 -13 -34 -54 11 -84 -62 -41 -101 16 -15 25 -16
44 -7 20 9 25 8 30 -4 10 -26 -3 -34 -49 -34 -35 0 -48 5 -64 26 -39 49 -21
133 33 154 28 12 31 12 60 0z m784 4 c12 -4 22 -14 22 -25 0 -15 -6 -17 -33
-12 -40 6 -60 -14 -60 -59 0 -39 27 -61 66 -52 24 5 28 3 25 -13 -2 -13 -14
-19 -43 -21 -33 -2 -45 2 -65 23 -45 48 -27 130 35 156 25 10 26 10 53 3z
m-620 -16 c16 -16 15 -63 -2 -81 -13 -12 -12 -18 5 -46 24 -39 24 -41 -1 -41
-13 0 -29 14 -43 38 l-22 37 -3 -37 c-3 -33 -7 -38 -28 -38 -24 0 -24 1 -24
90 l0 90 53 0 c29 0 58 -5 65 -12z m92 -78 c0 -83 -1 -90 -20 -90 -19 0 -20 7
-20 90 0 83 1 90 20 90 19 0 20 -7 20 -90z m146 18 c39 -115 38 -108 14 -108
-11 0 -23 7 -26 15 -4 8 -18 15 -34 15 -16 0 -30 -7 -34 -15 -3 -8 -14 -15
-25 -15 -19 0 -19 3 6 83 31 100 30 99 56 95 15 -2 26 -19 43 -70z m165 62
c23 -13 25 -56 4 -80 -14 -16 -14 -21 6 -54 l21 -36 -24 0 c-17 0 -29 10 -42
35 -11 19 -23 35 -28 35 -4 0 -8 -16 -8 -35 0 -28 -4 -35 -20 -35 -19 0 -20 7
-20 90 l0 90 46 0 c25 0 54 -5 65 -10z m387 -80 l31 -90 -25 0 c-15 0 -24 6
-24 15 0 10 -10 15 -30 15 -18 0 -33 -6 -36 -15 -4 -8 -15 -15 -26 -15 -12 0
-18 5 -15 13 2 6 14 47 27 90 20 67 26 77 46 77 19 0 26 -12 52 -90z m164 73
c22 -20 23 -42 2 -71 -14 -21 -14 -25 5 -57 l20 -35 -24 0 c-19 0 -30 9 -42
35 -9 19 -20 35 -25 35 -4 0 -8 -16 -8 -35 0 -28 -4 -35 -20 -35 -19 0 -20 7
-20 90 l0 90 47 0 c29 0 53 -6 65 -17z m168 2 c0 -9 -9 -15 -25 -15 -24 0 -25
-2 -25 -75 0 -68 -2 -75 -20 -75 -18 0 -20 7 -20 75 0 73 -1 75 -25 75 -16 0
-25 6 -25 15 0 12 14 15 70 15 56 0 70 -3 70 -15z m140 0 c0 -11 -11 -15 -40
-15 -33 0 -40 -3 -40 -20 0 -16 7 -20 30 -20 23 0 30 -4 30 -20 0 -16 -7 -20
-30 -20 -46 0 -39 -28 7 -32 27 -2 39 -8 41 -20 3 -16 -5 -18 -62 -18 l-66 0
0 90 0 90 65 0 c51 0 65 -3 65 -15z m70 -75 c0 -89 0 -90 -25 -90 -25 0 -25 1
-25 90 0 89 0 90 25 90 25 0 25 -1 25 -90z m144 74 c21 -20 20 -53 0 -75 -15
-17 -15 -21 6 -54 l22 -35 -25 0 c-17 0 -29 10 -43 35 -10 19 -22 35 -26 35
-5 0 -8 -16 -8 -35 0 -28 -4 -35 -20 -35 -19 0 -20 7 -20 90 l0 90 49 0 c32 0
55 -6 65 -16z m164 -74 l31 -90 -25 0 c-15 0 -24 6 -24 15 0 10 -10 15 -30 15
-18 0 -33 -6 -36 -15 -4 -8 -15 -15 -26 -15 -14 0 -18 5 -14 16 3 8 16 49 27
90 19 64 25 74 45 74 19 0 26 -12 52 -90z"/>
<path d="M3050 785 c0 -20 4 -26 18 -23 9 2 17 12 17 23 0 11 -8 21 -17 23
-14 3 -18 -3 -18 -23z"/>
<path d="M3298 755 c-4 -19 -1 -25 12 -25 13 0 17 6 13 20 -8 31 -20 33 -25 5z"/>
<path d="M3450 785 c0 -22 4 -26 23 -23 14 2 22 10 22 23 0 13 -8 21 -22 23
-19 3 -23 -1 -23 -23z"/>
<path d="M3851 778 c-1 -9 -4 -23 -7 -32 -4 -11 -1 -16 10 -16 17 0 19 14 6
45 -7 16 -9 17 -9 3z"/>
<path d="M4000 785 c0 -28 21 -33 41 -9 10 13 10 17 -2 25 -25 15 -39 10 -39
-16z"/>
<path d="M4520 785 c0 -26 14 -31 39 -16 19 12 6 41 -19 41 -15 0 -20 -7 -20
-25z"/>
<path d="M4700 773 c0 -6 -3 -18 -6 -27 -4 -11 -1 -16 10 -16 9 0 16 6 16 13
0 16 -20 46 -20 30z"/>
</g>
</svg>
