<?xml version="1.0" standalone="no"?>
<!DOCTYPE svg PUBLIC "-//W3C//DTD SVG 20010904//EN"
 "http://www.w3.org/TR/2001/REC-SVG-20010904/DTD/svg10.dtd">
<svg version="1.0" xmlns="http://www.w3.org/2000/svg"
 width="283.000000pt" height="178.000000pt" viewBox="0 0 283.000000 178.000000"
 preserveAspectRatio="xMidYMid meet">

<g transform="translate(0.000000,178.000000) scale(0.100000,-0.100000)"
fill="#000000" stroke="none">
<path d="M550 1161 c-80 -26 -129 -74 -150 -146 -7 -25 -10 -105 -8 -218 l3
-179 205 2 c199 1 206 1 247 26 26 15 53 43 70 72 27 45 28 53 28 173 0 122
-1 127 -30 175 -49 78 -95 98 -230 101 -60 1 -121 -1 -135 -6z m258 -249 c3
-124 -5 -152 -43 -152 l-25 0 0 128 c0 71 3 132 7 136 4 4 19 6 33 4 25 -3 25
-3 28 -116z m-210 -39 c3 -112 3 -112 -22 -119 -14 -3 -30 -3 -35 1 -7 4 -11
51 -11 121 l0 115 33 -3 32 -3 3 -112z m102 -12 c0 -59 -4 -102 -11 -106 -5
-4 -21 -4 -35 -1 -23 6 -24 9 -24 100 0 51 3 96 7 99 3 4 19 7 35 7 l28 0 0
-99z"/>
<path d="M1081 978 c0 -7 15 -58 32 -113 31 -96 34 -100 63 -103 31 -3 32 -2
49 63 10 36 21 62 25 58 5 -4 15 -34 24 -65 15 -54 19 -58 46 -58 29 0 30 3
61 103 18 56 34 108 36 115 4 8 -6 12 -29 12 -34 0 -35 -2 -47 -52 -19 -85
-26 -88 -48 -17 -16 56 -22 64 -44 67 -25 3 -28 -1 -44 -62 -10 -37 -21 -66
-25 -66 -3 0 -13 28 -21 63 -14 59 -16 62 -47 65 -22 2 -32 -1 -31 -10z"/>
<path d="M1467 970 c-97 -77 -9 -259 98 -204 19 10 31 11 33 5 2 -6 17 -11 33
-11 l29 0 0 115 0 115 -29 0 c-16 0 -31 -6 -34 -12 -4 -10 -7 -10 -18 0 -20
19 -83 15 -112 -8z m119 -65 c19 -29 11 -60 -22 -81 -22 -15 -26 -15 -49 0
-24 16 -30 32 -25 66 6 46 69 56 96 15z"/>
<path d="M1694 977 c-2 -7 -3 -58 -2 -113 l3 -99 32 -3 32 -3 3 73 c3 65 6 74
26 83 16 7 22 18 22 42 0 36 -10 41 -33 18 -13 -13 -16 -13 -21 0 -7 19 -55
20 -62 2z"/>
<path d="M1850 875 l0 -115 30 0 30 0 0 64 c0 66 14 96 46 96 9 0 14 11 14 35
0 38 -13 44 -42 18 -17 -15 -18 -15 -18 0 0 12 -9 17 -30 17 l-30 0 0 -115z"/>
<path d="M2029 962 c-25 -23 -33 -38 -36 -78 -5 -43 -2 -54 21 -81 36 -43 82
-57 131 -41 21 7 45 24 54 37 l15 24 -63 -7 c-43 -5 -67 -3 -77 5 -27 23 -13
29 66 29 90 0 95 6 66 74 -30 71 -119 90 -177 38z m102 -32 c32 -18 21 -30
-26 -30 -47 0 -58 12 -27 29 22 13 29 13 53 1z"/>
<path d="M2250 875 l0 -115 30 0 30 0 0 80 c0 68 3 81 19 90 35 18 51 -12 51
-96 l0 -74 30 0 30 0 0 86 c0 81 -10 120 -34 136 -17 12 -71 9 -84 -4 -9 -9
-12 -9 -12 0 0 7 -13 12 -30 12 l-30 0 0 -115z"/>
</g>
</svg>
